# xmcd
#
# Track frame offsets:
#	150
#	10185
#	22043
#	32466
#	47026
#	59171
#	77077
#	90881
#	105609
#	122192
#	140847
#	156079
#	172067
#	186648
#	204750
#	223685
#	240660
#
# Disc length: 3525 seconds
#
# Revision: 0
# Processed by: cddbd v1.5.2PL0 Copyright (c) Steve Scherf et al.
# Submitted via: EasyCDDAExtractor 15.2.5.1
#
DISCID=ed0dc311
DTITLE=Various Artist - GOLD 1/2
DYEAR=1900
DGENRE=
TTITLE0=THE HAWKETTES - MARDI GRAS MAMBO
TTITLE1=ART NEVILLE - CHA DOOKY-DO
TTITLE2=AARON NEVILLE - OVER YOU
TTITLE3=ART NEVILLE - ALL THESE THINGS
TTITLE4=AARON NEVILLE - TELL IT LIKE IT IS
TTITLE5=AARON NEVILLE - WHERE IS MY BABY
TTITLE6=THE METERS - CISSY STRUT
TTITLE7=THE METERS - LOOK-KA PY PY
TTITLE8=AARON NEVILLE - HERCULES
TTITLE9=THE METERS - THEY ALL ASK'D FOR YOU
TTITLE10=WILD TCHOUPITOULAS - MEET DE BOYS ON THE BATTLEFRONT
TTITLE11=WILD TCHOUPITOULAS - BROTHER JOHN
TTITLE12=NEVILLE BROTHERS - DANCING JONES
TTITLE13=NEVILLE BROTHERS - WASHABLE INK
TTITLE14=NEVILLE BROTHERS - SITTING IN LIMBO
TTITLE15=NEVILLE BROTHERS - MONA LISA
TTITLE16=NEVILLE BROTHERS - FIRE ON THE BAYOU
EXTD=
EXTT0=
EXTT1=
EXTT2=
EXTT3=
EXTT4=
EXTT5=
EXTT6=
EXTT7=
EXTT8=
EXTT9=
EXTT10=
EXTT11=
EXTT12=
EXTT13=
EXTT14=
EXTT15=
EXTT16=
PLAYORDER=
